<svg width="108" height="689" viewBox="0 0 108 689" fill="none" xmlns="http://www.w3.org/2000/svg">
<path fill-rule="evenodd" clip-rule="evenodd" d="M-316.262 558.254C-334.473 558.254 -349.311 554.111 -361.451 546.018C-396.619 522.315 -409.049 464.119 -401.63 357.362C-394.211 250.604 -373.88 194.72 -335.725 176.124C-297.57 157.529 -241.012 175.835 -152.272 235.67C-132.255 249.166 -114.807 261.933 -99.8213 274.098C-92.7346 278.972 -86.824 284.028 -82.0334 289.3C-43.1998 324.426 -26.241 354.611 -28.2676 383.376C-31.2545 425.675 -75.3835 465.564 -171.542 512.487C-234.652 543.32 -281.576 558.351 -316.262 558.351V558.254ZM-119.117 262.732C-129.701 254.792 -141.289 246.584 -153.91 238.078C-241.686 178.919 -297.281 160.612 -334.376 178.726C-371.472 196.84 -391.224 251.953 -398.546 357.458C-405.869 463.059 -393.921 520.485 -359.717 543.513C-325.512 566.541 -267.894 556.135 -172.795 509.693C-77.6959 463.252 -34.0487 424.229 -31.1581 383.087C-29.7842 363.531 -37.6192 343.169 -55.6464 320.832C-46.4844 334.124 -41.9052 347.151 -41.5536 360.251C-40.4938 399.755 -77.8782 440.704 -162.86 492.831C-224.399 530.582 -269.382 548.793 -302.715 548.811C-315.413 548.804 -326.381 546.203 -335.908 541.006C-370.69 522.121 -387.359 469.321 -390.057 369.693C-392.755 270.066 -378.88 216.398 -345.254 195.683C-311.531 174.967 -257.477 186.915 -169.798 234.416C-155.053 242.404 -141.671 250.147 -129.604 257.689C-125.94 259.35 -122.445 261.031 -119.117 262.732ZM-111.405 269.598C-109.508 270.694 -107.678 271.799 -105.913 272.914C-104.049 274.395 -102.221 275.866 -100.429 277.328C-101 276.935 -101.576 276.541 -102.158 276.148C-105.126 273.98 -108.208 271.797 -111.405 269.598ZM-156.201 249.529C-136.866 258.463 -120.559 267.24 -107.103 275.994C-94.8645 284.722 -84.5068 293.191 -75.9485 301.478C-73.3918 305.794 -71.5063 310.253 -70.2642 314.871C-61.3998 347.823 -85.1023 390.121 -146.96 451.979C-208.914 513.837 -251.212 537.539 -284.165 528.675C-317.117 519.907 -341.975 478.283 -364.618 393.686C-387.261 309.09 -386.586 260.625 -362.498 236.537C-350.069 224.108 -331.28 217.941 -304.302 217.941H-304.109C-278.769 217.941 -246.298 223.433 -205.253 234.417C-186.918 239.33 -170.602 244.347 -156.201 249.529ZM-147.018 250.429C-148.804 249.741 -150.623 249.056 -152.473 248.374C-163.124 243.385 -174.703 238.355 -187.238 233.26C-273.762 197.995 -325.406 192.503 -354.697 215.242C-366.128 224.117 -374.214 237.365 -379.062 255.725C-371.971 226.963 -360.335 208.31 -343.712 198.091C-310.952 177.954 -257.67 189.998 -171.05 236.921C-162.589 241.504 -154.581 246.004 -147.018 250.429ZM-179.341 239.363C-187.323 236.913 -195.763 234.496 -204.674 232.105C-290.138 209.27 -339.278 210.04 -364.136 234.899C-368.175 238.923 -371.579 243.592 -374.348 248.958C-369.565 235.021 -362.521 224.633 -353.155 217.362C-341.978 208.69 -327.333 204.258 -308.352 204.258V204.162C-279.254 204.162 -240.135 214.568 -188.298 235.669C-185.255 236.904 -182.269 238.136 -179.341 239.363ZM-381.675 322.308C-380.946 339.848 -379.043 359.601 -375.99 381.738C-363.368 473.272 -342.845 520.098 -309.412 533.684C-292.989 540.376 -273.153 539.096 -248.533 529.29C-256.236 531.719 -263.497 532.914 -270.386 532.914H-270.483C-275.493 532.914 -280.214 532.24 -284.839 531.084C-318.755 522.026 -344.095 479.825 -366.93 394.361C-374.328 366.674 -379.248 342.79 -381.675 322.308ZM-209.893 509.381C-190.909 496.426 -169.592 477.983 -145.322 453.713C-82.6935 391.085 -58.8947 348.112 -67.9517 314.196C-68.4177 312.457 -68.9713 310.739 -69.614 309.044C-62.7227 318.355 -58.7044 327.826 -57.356 337.609C-52.4421 373.355 -82.7928 414.497 -155.731 471.248C-175.603 486.71 -193.58 499.39 -209.893 509.381ZM-387.263 369.597C-388.37 327.677 -386.579 294.016 -381.629 267.626C-386.422 295.437 -385.287 332.954 -378.496 382.027C-365.681 474.62 -344.676 522.122 -310.375 536.093C-303.341 538.983 -295.633 540.429 -287.251 540.429V540.332C-255.069 540.332 -212.578 518.75 -154.093 473.272C-80.2877 415.846 -49.6479 373.933 -54.7546 337.223C-55.6149 330.919 -57.5352 324.752 -60.564 318.681C-49.9238 332.822 -44.6323 346.572 -44.2515 360.347C-43.1917 398.695 -80.1906 438.874 -164.209 490.422C-248.228 541.97 -300.739 556.808 -334.559 538.501C-368.378 520.194 -384.565 468.165 -387.263 369.597Z" fill="url(#paint0_linear_8480_2559)"/>
<path fill-rule="evenodd" clip-rule="evenodd" d="M-386.978 550.932C-372.333 562.687 -352.87 568.661 -327.626 568.661V568.757C-291.494 568.757 -243.415 556.617 -180.304 532.047C-72.9687 490.327 -21.9987 451.497 -15.0615 406.405C-8.12415 361.312 -45.0268 308.993 -134.826 236.922C-224.626 164.755 -283.593 139.993 -326.18 156.565C-368.768 173.138 -395.554 231.238 -413.09 345.029C-430.625 458.82 -422.628 522.316 -386.978 550.932ZM-410.006 345.607L-411.548 345.318V345.222L-410.006 345.511C-392.663 232.972 -366.455 175.643 -325.121 159.552C-283.786 143.461 -225.686 168.127 -136.946 239.428C-48.2064 310.728 -11.5928 361.987 -18.3374 405.923C-25.082 449.859 -75.3776 487.822 -181.557 529.06C-287.64 570.299 -350.461 576.272 -385.051 548.523C-419.641 520.774 -427.35 458.145 -410.006 345.607Z" fill="url(#paint1_linear_8480_2559)"/>
<path fill-rule="evenodd" clip-rule="evenodd" d="M-336.097 580.031C-370.302 580.031 -395.16 572.034 -412.504 555.943C-448.539 522.509 -452.297 453.618 -424.644 332.793C-396.991 211.872 -363.75 151.556 -316.73 137.103C-269.711 122.65 -208.238 153.772 -117.379 238.176C-26.5196 322.58 9.13055 381.547 -1.85358 429.53C-12.8376 477.513 -70.5522 515.09 -189.065 551.607C-250.729 570.588 -299.002 580.127 -336.193 580.127L-336.097 580.031ZM-293.413 137.007C-301.218 137.007 -308.637 138.066 -315.67 140.283C-361.341 154.35 -393.908 213.895 -421.272 333.467C-448.635 453.039 -445.167 520.871 -410.191 553.341C-375.119 585.908 -307.288 584.27 -190.028 548.235C-72.8646 512.103 -15.8245 475.2 -5.12952 428.663C5.56549 382.125 -29.7955 324.025 -119.691 240.584C-195.713 170.055 -250.633 137.007 -293.413 137.007Z" fill="url(#paint2_linear_8480_2559)"/>
<path fill-rule="evenodd" clip-rule="evenodd" d="M-437.839 560.953C-417.894 581.958 -386.677 592.364 -341.102 592.364L-341.199 592.557C-303.622 592.557 -256.313 585.427 -197.731 571.263C-68.0422 539.949 -3.48669 503.431 11.4478 452.654C26.3823 401.877 -7.91882 336.165 -99.8382 239.525C-191.758 142.788 -255.639 105.211 -307.09 117.64C-358.446 129.973 -398.239 192.601 -436.009 320.556C-473.682 448.511 -474.26 522.605 -437.839 560.953ZM-432.54 321.423L-434.274 320.942L-434.178 320.845L-432.444 321.327C-395.059 194.818 -356.133 132.96 -306.127 120.916C-256.12 108.872 -193.299 146.16 -102.343 241.741C-11.3875 337.418 22.6246 402.07 8.07544 451.402C-6.47363 500.734 -70.2582 536.576 -198.502 567.505C-326.746 598.434 -399.78 595.64 -435.238 558.352C-470.695 521.064 -469.924 448.029 -432.54 321.423Z" fill="url(#paint3_linear_8480_2559)"/>
<path fill-rule="evenodd" clip-rule="evenodd" d="M-342.175 605.659C-401.816 605.659 -440.646 592.555 -463.481 565.866C-500.384 522.7 -495.47 443.21 -447.583 308.125C-399.696 173.041 -353.448 108.292 -297.66 97.9828C-241.776 87.5768 -175.39 131.609 -82.411 240.583C10.5682 349.557 43.6168 422.013 24.6356 475.488C5.6543 529.059 -65.6458 564.517 -206.512 590.532C-260.372 600.552 -305.272 605.562 -342.271 605.562L-342.175 605.659ZM-281.473 100.392C-286.773 100.392 -291.879 100.873 -296.889 101.837C-351.232 111.857 -396.613 175.931 -443.922 309.571C-491.23 443.114 -496.337 521.448 -460.494 563.553C-424.652 605.659 -346.414 612.789 -207.09 587.063C-67.7656 561.241 2.66742 526.554 21.0706 474.428C39.57 422.302 6.71417 351.002 -85.3016 243.281C-168.742 145.484 -230.214 100.584 -281.473 100.584V100.392Z" fill="url(#paint4_linear_8480_2559)"/>
<path fill-rule="evenodd" clip-rule="evenodd" d="M-488.913 570.78C-463.193 603.821 -415.224 619.912 -338.268 619.919C-303.399 619.916 -262.562 616.544 -215.178 610.091C-63.1358 589.279 14.9089 554.882 37.8405 498.516C60.7722 442.15 29.0726 362.949 -64.9665 241.739C-159.006 120.529 -227.897 70.1372 -288.117 78.4234C-348.336 86.6133 -401.04 153.674 -459.044 295.792C-516.951 437.911 -526.201 522.7 -488.913 570.78ZM-485.733 568.274C-522.058 521.544 -512.616 437.911 -455.286 297.334C-397.957 156.661 -346.217 90.371 -287.538 82.3738C-228.86 74.3766 -161.125 124.287 -68.0497 244.244C25.0258 364.202 56.5327 442.15 34.1793 496.974C11.8257 551.895 -65.2555 585.521 -215.66 606.141C-366.161 626.76 -449.409 615.101 -485.733 568.274Z" fill="url(#paint5_linear_8480_2559)"/>
<path fill-rule="evenodd" clip-rule="evenodd" d="M-328.49 635.239C-426.865 635.239 -485.639 615.968 -514.352 575.694C-552.026 522.797 -538.536 432.612 -470.512 283.46C-402.488 134.404 -343.232 65.1271 -278.58 58.9606C-213.736 52.8905 -142.628 109.545 -47.4329 243.088C47.7624 376.631 78.1131 462.481 51.1347 521.64C24.1563 580.8 -60.6331 614.138 -223.852 629.747C-262.778 633.505 -297.561 635.335 -328.49 635.335V635.239ZM-268.945 62.7183C-272.028 62.7183 -275.111 62.8147 -278.098 63.1037C-341.112 69.1739 -399.212 137.68 -466.562 285.29C-533.912 432.901 -547.593 521.737 -510.884 573.285C-474.174 624.833 -385.723 640.924 -224.238 625.411C-62.7527 609.898 21.073 577.332 47.2806 519.81C73.5846 462.192 43.3302 377.595 -50.9016 245.497C-140.508 119.662 -208.34 62.7183 -268.945 62.7183Z" fill="url(#paint6_linear_8480_2559)"/>
<path fill-rule="evenodd" clip-rule="evenodd" d="M-539.79 580.705C-507.898 629.073 -436.405 651.716 -311.63 651.716L-311.533 651.812C-287.253 651.812 -260.949 650.945 -232.525 649.211C-58.2251 638.708 33.4051 606.527 64.3339 544.573C95.2628 482.715 66.261 390.025 -29.9941 244.245C-126.249 98.4654 -199.862 35.1625 -269.042 39.402C-338.126 43.5451 -403.838 115.038 -481.883 271.32C-560.024 427.506 -577.945 522.894 -539.79 580.705ZM-536.129 578.296C-573.32 521.93 -555.399 427.891 -478.029 273.247C-400.658 118.603 -336.103 47.8809 -268.753 43.8341C-201.5 39.691 -128.947 102.319 -33.6555 246.75C61.5398 391.085 90.5416 482.33 60.3835 542.646C30.2255 602.962 -60.2485 634.469 -232.814 644.778C-405.38 655.088 -498.937 634.662 -536.129 578.296Z" fill="url(#paint7_linear_8480_2559)"/>
<path fill-rule="evenodd" clip-rule="evenodd" d="M-286.188 669.347C-443.144 669.347 -530.053 643.043 -565.318 585.617C-603.859 522.989 -581.698 422.205 -493.44 258.986C-405.182 95.6698 -333.015 21.9609 -259.498 19.9375C-185.886 18.0105 -109.768 87.48 -12.5495 245.496C84.7655 403.609 112.515 502.948 77.5392 567.599C42.5636 632.251 -55.8113 663.469 -241.288 668.672C-256.801 669.154 -271.831 669.347 -286.188 669.347ZM-256.319 24.4661H-259.402C-331.088 26.4895 -402.002 99.4275 -489.393 261.105C-576.784 422.783 -598.945 522.122 -561.368 583.208C-523.791 644.295 -425.127 669.154 -241.384 664.047C-57.7383 658.844 39.384 628.494 73.4924 565.383C107.601 502.273 79.8516 404.38 -16.4999 247.905C-111.406 93.6465 -185.597 24.4661 -256.319 24.4661Z" fill="url(#paint8_linear_8480_2559)"/>
<path fill-rule="evenodd" clip-rule="evenodd" d="M-250.061 688.233C-446.714 688.233 -551.834 658.171 -590.856 590.629C-629.782 523.086 -603.286 417.003 -504.911 246.654C-406.536 76.3044 -327.913 0.379448 -250.061 0.379448C-172.209 0.379448 -93.4899 76.3044 4.88501 246.654C103.26 417.003 129.756 523.086 90.7341 590.532C51.8081 657.978 -53.3113 688.136 -250.061 688.136V688.233ZM-250.061 5.19702C-326.082 5.19702 -403.356 80.4475 -500.768 249.063C-598.179 417.678 -624.579 522.315 -586.617 588.22C-548.654 654.028 -444.787 683.415 -250.061 683.415C-55.3347 683.415 48.5322 654.028 86.4947 588.22C124.457 522.412 98.0568 417.774 0.645508 249.159C-96.7659 80.5439 -174.04 5.19702 -250.061 5.19702Z" fill="url(#paint9_linear_8480_2559)"/>
<defs>
<linearGradient id="paint0_linear_8480_2559" x1="-608.061" y1="0.379448" x2="79.2376" y2="715.863" gradientUnits="userSpaceOnUse">
<stop stop-color="#F1EDFF"/>
<stop offset="0.5" stop-color="#6633FF"/>
<stop offset="1" stop-color="#FF3300"/>
</linearGradient>
<linearGradient id="paint1_linear_8480_2559" x1="-608.061" y1="0.379448" x2="79.2376" y2="715.863" gradientUnits="userSpaceOnUse">
<stop stop-color="#F1EDFF"/>
<stop offset="0.5" stop-color="#6633FF"/>
<stop offset="1" stop-color="#FF3300"/>
</linearGradient>
<linearGradient id="paint2_linear_8480_2559" x1="-608.061" y1="0.379448" x2="79.2376" y2="715.863" gradientUnits="userSpaceOnUse">
<stop stop-color="#F1EDFF"/>
<stop offset="0.5" stop-color="#6633FF"/>
<stop offset="1" stop-color="#FF3300"/>
</linearGradient>
<linearGradient id="paint3_linear_8480_2559" x1="-608.061" y1="0.379448" x2="79.2376" y2="715.863" gradientUnits="userSpaceOnUse">
<stop stop-color="#F1EDFF"/>
<stop offset="0.5" stop-color="#6633FF"/>
<stop offset="1" stop-color="#FF3300"/>
</linearGradient>
<linearGradient id="paint4_linear_8480_2559" x1="-608.061" y1="0.379448" x2="79.2376" y2="715.863" gradientUnits="userSpaceOnUse">
<stop stop-color="#F1EDFF"/>
<stop offset="0.5" stop-color="#6633FF"/>
<stop offset="1" stop-color="#FF3300"/>
</linearGradient>
<linearGradient id="paint5_linear_8480_2559" x1="-608.061" y1="0.379448" x2="79.2376" y2="715.863" gradientUnits="userSpaceOnUse">
<stop stop-color="#F1EDFF"/>
<stop offset="0.5" stop-color="#6633FF"/>
<stop offset="1" stop-color="#FF3300"/>
</linearGradient>
<linearGradient id="paint6_linear_8480_2559" x1="-608.061" y1="0.379448" x2="79.2376" y2="715.863" gradientUnits="userSpaceOnUse">
<stop stop-color="#F1EDFF"/>
<stop offset="0.5" stop-color="#6633FF"/>
<stop offset="1" stop-color="#FF3300"/>
</linearGradient>
<linearGradient id="paint7_linear_8480_2559" x1="-608.061" y1="0.379448" x2="79.2376" y2="715.863" gradientUnits="userSpaceOnUse">
<stop stop-color="#F1EDFF"/>
<stop offset="0.5" stop-color="#6633FF"/>
<stop offset="1" stop-color="#FF3300"/>
</linearGradient>
<linearGradient id="paint8_linear_8480_2559" x1="-608.061" y1="0.379448" x2="79.2376" y2="715.863" gradientUnits="userSpaceOnUse">
<stop stop-color="#F1EDFF"/>
<stop offset="0.5" stop-color="#6633FF"/>
<stop offset="1" stop-color="#FF3300"/>
</linearGradient>
<linearGradient id="paint9_linear_8480_2559" x1="-608.061" y1="0.379448" x2="79.2376" y2="715.863" gradientUnits="userSpaceOnUse">
<stop stop-color="#F1EDFF"/>
<stop offset="0.5" stop-color="#6633FF"/>
<stop offset="1" stop-color="#FF3300"/>
</linearGradient>
</defs>
</svg>
