<svg width="139" height="688" viewBox="0 0 139 688" fill="none" xmlns="http://www.w3.org/2000/svg">
<path fill-rule="evenodd" clip-rule="evenodd" d="M424.262 129.978C442.473 129.978 457.311 134.121 469.451 142.215C504.619 165.917 517.049 224.114 509.63 330.871C502.211 437.629 481.88 493.513 443.725 512.108C405.57 530.704 349.012 512.397 260.272 452.563C240.255 439.066 222.807 426.3 207.821 414.135C200.735 409.26 194.824 404.204 190.033 398.932C151.2 363.807 134.241 333.622 136.268 304.856C139.255 262.558 183.383 222.668 279.542 175.745C342.652 144.913 389.576 129.882 424.262 129.882V129.978ZM227.117 425.5C237.701 433.441 249.289 441.648 261.91 450.154C349.686 509.314 405.281 527.621 442.376 509.507C479.472 491.393 499.224 436.28 506.546 330.775C513.869 225.174 501.921 167.748 467.717 144.72C433.512 121.692 375.894 132.098 280.795 178.539C185.696 224.981 142.049 264.003 139.158 305.145C137.784 324.702 145.619 345.064 163.646 367.401C154.484 354.108 149.905 341.082 149.554 327.982C148.494 288.478 185.878 247.528 270.86 195.402C332.399 157.65 377.382 139.439 410.715 139.422C423.413 139.429 434.381 142.03 443.908 147.226C478.69 166.111 495.359 218.912 498.057 318.539C500.755 418.167 486.88 471.835 453.254 492.55C419.531 513.266 365.477 501.318 277.798 453.817C263.053 445.829 249.671 438.086 237.604 430.544C233.94 428.883 230.445 427.202 227.117 425.5ZM219.405 418.635C217.508 417.539 215.678 416.433 213.913 415.319C212.049 413.838 210.221 412.367 208.429 410.905C209 411.298 209.576 411.691 210.158 412.085C213.126 414.253 216.208 416.436 219.405 418.635ZM264.201 438.704C244.866 429.77 228.559 420.993 215.103 412.239C202.865 403.511 192.507 395.042 183.949 386.755C181.392 382.438 179.506 377.98 178.264 373.362C169.4 340.41 193.102 298.111 254.96 236.254C316.914 174.396 359.212 150.694 392.165 159.558C425.117 168.326 449.975 209.95 472.618 294.546C495.261 379.143 494.586 427.608 470.498 451.696C458.069 464.125 439.28 470.292 412.302 470.292H412.109C386.769 470.292 354.298 464.799 313.253 453.815C294.918 448.903 278.602 443.885 264.201 438.704ZM255.018 437.804C256.804 438.492 258.623 439.177 260.473 439.859C271.124 444.848 282.703 449.878 295.238 454.973C381.762 490.237 433.406 495.729 462.697 472.99C474.128 464.116 482.214 450.868 487.062 432.508C479.971 461.27 468.335 479.923 451.712 490.141C418.952 510.279 365.67 498.235 279.05 451.312C270.589 446.728 262.581 442.228 255.018 437.804ZM287.341 448.869C295.323 451.32 303.763 453.737 312.674 456.128C398.138 478.963 447.278 478.192 472.136 453.334C476.175 449.31 479.579 444.641 482.348 439.274C477.565 453.212 470.521 463.6 461.155 470.871C449.978 479.542 435.333 483.975 416.352 483.975V484.071C387.254 484.071 348.135 473.665 296.298 452.564C293.255 451.328 290.269 450.097 287.341 448.869ZM489.675 365.924C488.946 348.385 487.043 328.632 483.99 306.495C471.368 214.961 450.845 168.134 417.412 154.549C400.989 147.856 381.153 149.137 356.533 158.943C364.236 156.514 371.497 155.319 378.386 155.319H378.483C383.493 155.319 388.214 155.993 392.839 157.149C426.755 166.206 452.095 208.408 474.93 293.872C482.328 321.558 487.248 345.442 489.675 365.924ZM317.893 178.852C298.909 191.807 277.592 210.249 253.322 234.519C190.693 297.148 166.895 340.121 175.952 374.036C176.418 375.776 176.971 377.493 177.614 379.189C170.723 369.877 166.704 360.407 165.356 350.624C160.442 314.878 190.793 273.736 263.731 216.985C283.603 201.522 301.58 188.843 317.893 178.852ZM495.263 318.636C496.37 360.556 494.579 394.216 489.629 420.607C494.422 392.795 493.287 355.279 486.496 306.206C473.681 213.612 452.676 166.111 418.375 152.14C411.341 149.249 403.633 147.804 395.251 147.804V147.901C363.069 147.901 320.578 169.483 262.093 214.961C188.288 272.387 157.648 314.3 162.755 351.009C163.615 357.313 165.535 363.481 168.564 369.551C157.924 355.411 152.632 341.66 152.252 327.885C151.192 289.538 188.191 249.359 272.209 197.811C356.228 146.263 408.739 131.425 442.559 149.732C476.378 168.038 492.565 220.068 495.263 318.636Z" fill="url(#paint0_linear_8480_6003)"/>
<path fill-rule="evenodd" clip-rule="evenodd" d="M494.978 137.301C480.333 125.546 460.87 119.572 435.626 119.572V119.476C399.494 119.476 351.415 131.616 288.304 156.186C180.969 197.906 129.999 236.736 123.061 281.828C116.124 326.921 153.027 379.239 242.826 451.31C332.626 523.478 391.593 548.24 434.18 531.667C476.768 515.095 503.554 456.995 521.09 343.204C538.625 229.413 530.628 165.917 494.978 137.301ZM518.006 342.626L519.548 342.915V343.011L518.006 342.722C500.663 455.261 474.455 512.59 433.121 528.681C391.786 544.771 333.686 520.105 244.946 448.805C156.206 377.505 119.593 326.246 126.337 282.31C133.082 238.373 183.378 200.411 289.557 159.173C395.64 117.934 458.461 111.96 493.051 139.71C527.641 167.459 535.35 230.087 518.006 342.626Z" fill="url(#paint1_linear_8480_6003)"/>
<path fill-rule="evenodd" clip-rule="evenodd" d="M444.097 108.202C478.302 108.202 503.16 116.199 520.504 132.29C556.539 165.724 560.297 234.615 532.644 355.44C504.991 476.361 471.75 536.677 424.73 551.13C377.711 565.583 316.238 534.461 225.379 450.057C134.52 365.653 98.8694 306.686 109.854 258.703C120.838 210.72 178.552 173.143 297.065 136.626C358.729 117.644 407.002 108.106 444.193 108.106L444.097 108.202ZM401.413 551.226C409.218 551.226 416.637 550.166 423.67 547.95C469.341 533.883 501.908 474.338 529.272 354.766C556.635 235.193 553.167 167.362 518.191 134.891C483.119 102.325 415.288 103.963 298.028 139.998C180.865 176.13 123.825 213.032 113.13 259.57C102.435 306.108 137.796 364.208 227.691 447.648C303.713 518.178 358.633 551.226 401.413 551.226Z" fill="url(#paint2_linear_8480_6003)"/>
<path fill-rule="evenodd" clip-rule="evenodd" d="M545.839 127.279C525.894 106.275 494.677 95.8689 449.102 95.8689L449.199 95.6762C411.622 95.6762 364.313 102.806 305.731 116.97C176.042 148.284 111.487 184.801 96.5522 235.579C81.6177 286.356 115.919 352.068 207.838 448.708C299.758 545.445 363.639 583.022 415.09 570.593C466.446 558.26 506.239 495.631 544.009 367.676C581.682 239.722 582.26 165.627 545.839 127.279ZM540.54 366.809L542.274 367.291L542.178 367.387L540.444 366.906C503.059 493.415 464.133 555.273 414.127 567.317C364.12 579.361 301.299 542.073 210.343 446.492C119.388 350.815 85.3754 286.163 99.9246 236.831C114.474 187.499 178.258 151.656 306.502 120.728C434.746 89.7987 507.78 92.593 543.238 129.881C578.695 167.169 577.924 240.203 540.54 366.809Z" fill="url(#paint3_linear_8480_6003)"/>
<path fill-rule="evenodd" clip-rule="evenodd" d="M450.175 82.5739C509.816 82.5739 548.646 95.6777 571.481 122.367C608.384 165.533 603.47 245.022 555.583 380.107C507.696 515.192 461.448 579.94 405.66 590.25C349.776 600.656 283.39 556.623 190.411 447.65C97.4318 338.676 64.3832 266.22 83.3644 212.745C102.346 159.173 173.646 123.716 314.512 97.701C368.372 87.6805 413.272 82.6702 450.271 82.6702L450.175 82.5739ZM389.473 587.841C394.773 587.841 399.879 587.359 404.889 586.396C459.232 576.375 504.613 512.302 551.922 378.662C599.23 245.119 604.337 166.785 568.494 124.68C532.652 82.5739 454.414 75.4439 315.09 101.17C175.766 126.992 105.333 161.678 86.9294 213.805C68.43 265.931 101.286 337.231 193.302 444.952C276.742 542.749 338.214 587.648 389.473 587.648V587.841Z" fill="url(#paint4_linear_8480_6003)"/>
<path fill-rule="evenodd" clip-rule="evenodd" d="M596.913 117.453C571.193 84.4115 523.224 68.3206 446.268 68.3138C411.399 68.317 370.562 71.6892 323.178 78.1417C171.136 98.9537 93.0911 133.351 70.1595 189.717C47.2278 246.082 78.9274 325.283 172.966 446.494C267.006 567.704 335.897 618.096 396.117 609.809C456.336 601.619 509.04 534.559 567.044 392.44C624.951 250.322 634.201 165.533 596.913 117.453ZM593.733 119.958C630.058 166.689 620.616 250.322 563.286 390.899C505.957 531.572 454.217 597.862 395.538 605.859C336.86 613.856 269.125 563.946 176.05 443.988C82.9742 324.031 51.4673 246.082 73.8207 191.258C96.1743 136.338 173.255 102.711 323.66 82.0922C474.161 61.473 557.409 73.1315 593.733 119.958Z" fill="url(#paint5_linear_8480_6003)"/>
<path fill-rule="evenodd" clip-rule="evenodd" d="M436.49 52.9938C534.865 52.9938 593.639 72.2642 622.352 112.539C660.026 165.436 646.536 255.621 578.512 404.773C510.488 553.829 451.232 623.106 386.58 629.272C321.736 635.342 250.628 578.688 155.433 445.144C60.2376 311.601 29.8869 225.752 56.8653 166.592C83.8437 107.432 168.633 74.0948 331.852 58.4859C370.778 54.7282 405.561 52.8975 436.49 52.8975V52.9938ZM376.945 625.514C380.028 625.514 383.111 625.418 386.098 625.129C449.112 619.059 507.212 550.553 574.562 402.942C641.912 255.332 655.593 166.496 618.884 114.948C582.174 63.3999 493.723 47.3091 332.238 62.8217C170.753 78.3343 86.927 110.901 60.7194 168.423C34.4154 226.041 64.6698 310.638 158.902 442.736C248.508 568.571 316.34 625.514 376.945 625.514Z" fill="url(#paint6_linear_8480_6003)"/>
<path fill-rule="evenodd" clip-rule="evenodd" d="M647.79 107.528C615.898 59.1595 544.405 36.517 419.63 36.517L419.533 36.4207C395.253 36.4207 368.949 37.2879 340.525 39.0222C166.225 49.5245 74.5949 81.7059 43.6661 143.66C12.7372 205.518 41.739 298.208 137.994 443.987C234.249 589.767 307.862 653.07 377.042 648.831C446.126 644.688 511.838 573.195 589.883 416.913C668.024 260.727 685.945 165.339 647.79 107.528ZM644.129 109.937C681.32 166.302 663.399 260.342 586.029 414.986C508.658 569.63 444.103 640.352 376.753 644.399C309.5 648.542 236.947 585.913 141.656 441.482C46.4602 297.148 17.4584 205.903 47.6165 145.587C77.7745 85.2709 168.249 53.7639 340.814 43.4543C513.38 33.1447 606.937 53.5712 644.129 109.937Z" fill="url(#paint7_linear_8480_6003)"/>
<path fill-rule="evenodd" clip-rule="evenodd" d="M394.188 18.8861C551.144 18.8861 638.053 45.1901 673.318 102.616C711.859 165.244 689.698 266.028 601.44 429.247C513.182 592.563 441.015 666.272 367.498 668.295C293.886 670.222 217.768 600.753 120.549 442.736C23.2345 284.624 -4.51477 185.285 30.4608 120.633C65.4364 55.9814 163.811 24.7635 349.288 19.5606C364.801 19.0789 379.831 18.8861 394.188 18.8861ZM364.319 663.767H367.402C439.088 661.743 510.002 588.805 597.393 427.127C684.784 265.45 706.945 166.111 669.368 105.024C631.791 43.9375 533.127 19.0789 349.384 24.1855C165.738 29.3885 68.616 59.7391 34.5076 122.849C0.399109 185.96 28.1484 283.853 124.5 440.328C219.406 594.586 293.597 663.767 364.319 663.767Z" fill="url(#paint8_linear_8480_6003)"/>
<path fill-rule="evenodd" clip-rule="evenodd" d="M358.061 -6.10352e-05C554.714 -6.10352e-05 659.834 30.0616 698.856 97.604C737.782 165.146 711.286 271.229 612.911 441.579C514.536 611.928 435.913 687.853 358.061 687.853C280.209 687.853 201.49 611.928 103.115 441.579C4.74017 271.229 -21.7564 165.146 17.2659 97.7004C56.1919 30.2543 161.311 0.0963135 358.061 0.0963135V-6.10352e-05ZM358.061 683.036C434.082 683.036 511.356 607.785 608.768 439.17C706.179 270.555 732.579 165.917 694.617 100.013C656.654 34.2047 552.787 4.8175 358.061 4.8175C163.335 4.8175 59.4678 34.2047 21.5053 100.013C-16.4571 165.821 9.94318 270.459 107.354 439.074C204.766 607.689 282.04 683.036 358.061 683.036Z" fill="url(#paint9_linear_8480_6003)"/>
<defs>
<linearGradient id="paint0_linear_8480_6003" x1="716.061" y1="687.853" x2="28.7624" y2="-27.63" gradientUnits="userSpaceOnUse">
<stop stop-color="#F1EDFF"/>
<stop offset="0.5" stop-color="#6633FF"/>
<stop offset="1" stop-color="#FF3300"/>
</linearGradient>
<linearGradient id="paint1_linear_8480_6003" x1="716.061" y1="687.853" x2="28.7624" y2="-27.63" gradientUnits="userSpaceOnUse">
<stop stop-color="#F1EDFF"/>
<stop offset="0.5" stop-color="#6633FF"/>
<stop offset="1" stop-color="#FF3300"/>
</linearGradient>
<linearGradient id="paint2_linear_8480_6003" x1="716.061" y1="687.853" x2="28.7624" y2="-27.63" gradientUnits="userSpaceOnUse">
<stop stop-color="#F1EDFF"/>
<stop offset="0.5" stop-color="#6633FF"/>
<stop offset="1" stop-color="#FF3300"/>
</linearGradient>
<linearGradient id="paint3_linear_8480_6003" x1="716.061" y1="687.853" x2="28.7624" y2="-27.63" gradientUnits="userSpaceOnUse">
<stop stop-color="#F1EDFF"/>
<stop offset="0.5" stop-color="#6633FF"/>
<stop offset="1" stop-color="#FF3300"/>
</linearGradient>
<linearGradient id="paint4_linear_8480_6003" x1="716.061" y1="687.853" x2="28.7624" y2="-27.63" gradientUnits="userSpaceOnUse">
<stop stop-color="#F1EDFF"/>
<stop offset="0.5" stop-color="#6633FF"/>
<stop offset="1" stop-color="#FF3300"/>
</linearGradient>
<linearGradient id="paint5_linear_8480_6003" x1="716.061" y1="687.853" x2="28.7624" y2="-27.63" gradientUnits="userSpaceOnUse">
<stop stop-color="#F1EDFF"/>
<stop offset="0.5" stop-color="#6633FF"/>
<stop offset="1" stop-color="#FF3300"/>
</linearGradient>
<linearGradient id="paint6_linear_8480_6003" x1="716.061" y1="687.853" x2="28.7624" y2="-27.63" gradientUnits="userSpaceOnUse">
<stop stop-color="#F1EDFF"/>
<stop offset="0.5" stop-color="#6633FF"/>
<stop offset="1" stop-color="#FF3300"/>
</linearGradient>
<linearGradient id="paint7_linear_8480_6003" x1="716.061" y1="687.853" x2="28.7624" y2="-27.63" gradientUnits="userSpaceOnUse">
<stop stop-color="#F1EDFF"/>
<stop offset="0.5" stop-color="#6633FF"/>
<stop offset="1" stop-color="#FF3300"/>
</linearGradient>
<linearGradient id="paint8_linear_8480_6003" x1="716.061" y1="687.853" x2="28.7624" y2="-27.63" gradientUnits="userSpaceOnUse">
<stop stop-color="#F1EDFF"/>
<stop offset="0.5" stop-color="#6633FF"/>
<stop offset="1" stop-color="#FF3300"/>
</linearGradient>
<linearGradient id="paint9_linear_8480_6003" x1="716.061" y1="687.853" x2="28.7624" y2="-27.63" gradientUnits="userSpaceOnUse">
<stop stop-color="#F1EDFF"/>
<stop offset="0.5" stop-color="#6633FF"/>
<stop offset="1" stop-color="#FF3300"/>
</linearGradient>
</defs>
</svg>
