<svg width="136" height="745" viewBox="0 0 136 745" fill="none" xmlns="http://www.w3.org/2000/svg">
<path fill-rule="evenodd" clip-rule="evenodd" d="M-100.274 147.609C-138.392 118.443 -180.846 85.9593 -236.852 85.9593L-236.755 85.7666C-245.234 85.7666 -254.099 86.5374 -263.252 88.1754C-316.245 97.6179 -359.025 141.169 -400.36 183.274L-400.366 183.281C-405.856 188.867 -411.346 194.453 -416.74 199.847L-417.232 200.339C-488.708 271.912 -550.365 333.651 -544.02 405.268C-538.046 473.292 -472.72 521.179 -376.561 572.149C-365.192 578.219 -354.208 584.193 -343.416 590.07L-343.274 590.148C-271.174 629.326 -214.172 660.301 -157.843 645.376C-111.291 633.022 -87.2346 587.159 -67.4426 532.004C-60.7953 521.115 -56.3179 507.888 -54.0069 492.043C-53.1685 489.448 -52.3301 486.846 -51.4901 484.238L-51.4713 484.18C-50.9064 482.438 -50.3415 480.691 -49.7752 478.939C-48.0233 473.519 -46.258 468.058 -44.4377 462.597C-38.1748 443.712 -28.5397 425.406 -19.0972 407.773L-18.8716 407.347C-1.02019 373.661 17.3981 338.905 12.217 298.607C2.8709 226.632 -56.6743 180.962 -100.129 147.721L-100.274 147.609ZM-52.3975 474.89C-50.9543 470.407 -49.4971 465.924 -48.0027 461.441L-46.2684 462.019H-46.172L-47.9063 461.441C-41.6846 442.393 -31.9443 424.105 -22.5589 406.484L-22.3732 406.135C-4.64452 372.894 13.6623 338.4 8.55564 299.185C-0.494202 228.712 -59.2787 183.635 -102.243 150.69L-102.345 150.611L-102.52 150.477C-145.835 117.365 -194.838 79.9054 -262.77 91.9332C-314.704 101.183 -357.002 144.252 -397.951 185.972C-398.843 186.879 -399.731 187.786 -400.618 188.692C-401.103 189.187 -401.587 189.682 -402.071 190.176L-402.104 190.211L-402.107 190.213C-406.181 194.377 -410.229 198.515 -414.331 202.545C-485.438 273.652 -546.814 335.028 -540.552 405.075C-534.289 475.316 -457.304 525.418 -375.02 569.066C-363.65 575.136 -352.57 581.11 -341.875 586.987C-270.382 625.913 -213.92 656.649 -158.903 642.004C-133.151 635.157 -114.424 617.454 -99.4624 593.37C-111.031 610.158 -125.565 622.562 -144.74 628.997C-199.226 647.351 -260.899 617.69 -338.937 580.158L-339.562 579.858C-347.174 576.196 -354.979 572.439 -362.976 568.585C-505.383 500.753 -529.086 450.843 -533.422 410.954C-540.648 344.76 -486.787 285.215 -409.899 208.326C-407.683 206.11 -405.491 203.894 -403.299 201.678C-401.107 199.462 -398.915 197.246 -396.699 195.03C-357.387 155.237 -316.631 113.998 -267.877 103.014C-256.122 100.413 -244.945 99.1603 -234.25 99.1603V99.0638C-186.942 99.0638 -149.268 122.477 -114.389 147.24C-65.346 181.926 -18.6155 222.876 -8.30589 286.371C-2.5248 322.31 -16.3031 354.684 -29.7923 385.999C-37.3076 403.534 -45.1122 421.745 -49.448 440.534L-52.3945 453.377C-52.0778 460.957 -52.0787 468.123 -52.3975 474.89ZM-59.9756 498.403C-58.4937 490.999 -57.5579 482.932 -57.1681 474.167C-57.6941 476.436 -58.2205 478.694 -58.7482 480.94C-59.1627 487.972 -59.8498 494.678 -60.8372 501.044C-60.5498 500.165 -60.2626 499.284 -59.9756 498.403ZM-53.2361 440.123L-53.1093 439.57C-48.6772 420.492 -40.8727 402.089 -33.2609 384.361L-33.0482 383.862C-19.3483 351.769 -6.40813 321.456 -12.0636 286.757C-22.1805 224.706 -68.2365 184.431 -116.605 150.13C-160.349 119.105 -204.767 92.4156 -267.01 106.483C-314.603 117.155 -354.808 157.858 -393.658 197.189L-393.905 197.439C-396.117 199.651 -398.306 201.864 -400.495 204.077L-400.505 204.087C-402.697 206.303 -404.889 208.519 -407.105 210.735C-483.222 286.853 -536.601 345.724 -529.567 410.279C-521.956 479.46 -440.25 527.25 -361.241 564.923C-353.244 568.777 -345.44 572.535 -337.828 576.196C-276.259 605.873 -225 630.539 -179.812 630.539L-179.908 630.635C-168.153 630.635 -156.88 628.997 -145.896 625.239C-128.37 619.346 -114.829 608.1 -103.903 592.855C-111.598 601.295 -120.715 607.935 -131.642 612.521C-185.465 635.051 -251.795 606.683 -343.614 567.415L-343.808 567.332L-349.493 564.923C-430.043 530.429 -513.676 485.915 -522.925 416.445C-531.597 351.023 -473.786 287.142 -403.161 216.516L-393.911 207.17C-356.237 169.304 -317.311 130.185 -272.701 117.563C-257.574 113.324 -243.314 111.397 -230.017 111.397H-229.824C-190.224 111.397 -158.042 127.873 -128.848 146.758C-92.2344 170.364 -42.0353 209.193 -28.9315 274.038C-22.5723 305.834 -31.5329 334.547 -41.0717 364.994L-41.1297 365.179C-46.5074 382.368 -52.0648 400.132 -54.5609 418.565L-55.1157 422.633C-54.3345 428.673 -53.7079 434.501 -53.2361 440.123ZM-57.8522 442.799C-57.474 447.65 -57.2159 452.339 -57.078 456.869C-57.4751 458.599 -57.871 460.324 -58.2662 462.043C-58.2868 457.516 -58.3962 452.877 -58.5882 448.128C-58.3424 446.36 -58.0972 444.584 -57.8522 442.799ZM-57.0352 409.313C-54.2331 394.054 -49.6434 379.306 -45.1962 365.016L-44.7252 363.503C-35.4176 333.662 -26.642 305.526 -32.7855 274.809C-45.5039 211.506 -94.9322 173.351 -130.968 150.13C-169.219 125.464 -212.77 104.941 -271.448 121.417C-315.095 133.75 -353.636 172.483 -390.924 209.964L-400.174 219.31C-470.125 289.261 -527.261 352.275 -518.782 415.867C-509.822 483.313 -427.345 527.153 -347.759 561.165L-342.074 563.574L-341.964 563.621C-273.028 593.082 -218.527 616.375 -173.459 616.375L-173.555 616.471C-159.199 616.471 -145.709 614.062 -133.087 608.763C-120.597 603.539 -110.552 595.402 -102.327 584.786C-107.057 589.156 -112.34 592.883 -118.248 595.949C-168.158 621.963 -236.761 599.032 -335.617 561.166C-449.119 517.711 -503.558 474.738 -512.037 421.938C-521.383 363.645 -474.556 303.233 -396.03 224.706L-391.667 220.344C-353.665 182.341 -317.837 146.513 -277.035 132.209C-257.476 125.368 -239.651 122.574 -223.56 122.574V122.477C-190.223 122.477 -163.919 134.329 -143.107 146.18C-92.8114 174.893 -61.3045 213.722 -49.3569 261.609C-42.4258 289.526 -47.3247 316.289 -52.5225 344.684L-52.5365 344.76C-55.5826 361.228 -58.6288 378.167 -59.3521 395.762C-58.505 400.384 -57.7327 404.9 -57.0352 409.313ZM-60.3533 419.939C-60.0613 422.057 -59.7881 424.148 -59.5337 426.213L-59.8079 428.249C-59.9941 425.933 -60.1961 423.594 -60.4133 421.233C-60.3932 420.803 -60.3732 420.371 -60.3533 419.939ZM-74.9709 347.441C-76.3134 342.102 -77.7309 336.648 -79.2234 331.079C-109.767 217.095 -143.104 161.018 -187.33 149.167C-231.555 137.316 -288.499 169.208 -371.939 252.648C-455.38 336.089 -487.272 393.033 -475.421 437.258C-463.57 481.483 -407.493 514.821 -293.509 545.364C-238.107 560.202 -194.267 567.622 -160.062 567.622C-123.931 567.622 -98.5901 559.335 -81.9213 542.666C-81.6672 542.412 -81.415 542.156 -81.1648 541.898C-81.0265 541.497 -80.8893 541.094 -80.7534 540.689C-78.9176 534.898 -77.237 528.833 -75.6796 522.516C-70.8944 501.798 -68.1502 477.31 -66.2989 449.389C-66.2207 433.862 -66.6933 416.963 -67.5708 398.654C-69.3696 384.078 -71.626 368.759 -74.2242 352.757L-74.1279 352.854C-74.4174 351.037 -74.698 349.233 -74.9709 347.441ZM-80.1812 309.472C-105.964 220.575 -134.274 170.309 -169.686 151.103C-137.336 165.009 -110.943 195.837 -94.9398 238.388C-86.881 259.848 -83.5876 283.01 -80.1812 309.472ZM-70.9172 343.556C-72.4265 333.414 -73.6921 323.601 -74.8987 314.024C-78.4637 286.275 -81.836 260.164 -90.604 236.75C-107.755 191.176 -136.66 158.706 -172.021 145.12C-184.065 140.495 -196.302 138.183 -209.213 138.183V137.99C-232.626 137.99 -257.87 145.698 -286.39 161.307C-316.163 177.687 -346.321 204.954 -382.26 240.99C-469.073 327.899 -501.543 385.228 -490.752 432.922C-479.768 481.579 -423.595 518.867 -308.455 553.747C-194.185 588.488 -131.613 591.844 -94.7016 564.975C-98.4883 569.032 -102.723 572.576 -107.445 575.617C-150.321 603.173 -218.056 588.335 -320.671 553.263C-433.306 514.723 -487.744 475.7 -497.09 426.561C-507.689 371.159 -460.38 310.265 -386.093 235.978C-347.071 196.956 -314.504 165.834 -280.01 150.803C-235.785 131.533 -197.534 131.147 -159.475 149.551C-135.58 161.113 -92.7031 189.633 -74.2036 250.431C-66.9303 274.356 -67.8318 299.137 -68.7885 325.434L-68.808 325.97C-69.0918 333.633 -69.3755 341.411 -69.4656 349.34C-69.9397 347.426 -70.4236 345.498 -70.9172 343.556ZM-64.8248 368.991C-65.4094 354.284 -64.8926 340.031 -64.3758 326.163C-63.3159 299.281 -62.4487 273.94 -69.9642 249.178C-89.0417 186.742 -132.978 157.451 -157.548 145.6C-176.818 136.254 -196.088 131.629 -216.129 131.629C-236.941 131.629 -258.62 136.64 -281.745 146.756C-316.913 162.173 -349.769 193.487 -389.177 232.895C-464.427 308.145 -512.41 370.003 -501.426 427.428C-491.791 478.398 -436.485 518.48 -322.116 557.503C-218.249 592.96 -149.454 607.895 -105.132 579.375C-102.841 577.897 -100.659 576.31 -98.5829 574.614C-104.62 581.948 -111.772 587.862 -120.272 592.287C-134.435 599.61 -150.237 602.886 -167.966 602.886L-168.062 602.982C-210.938 602.982 -265.184 583.905 -334.365 557.408C-446.325 514.628 -499.896 472.619 -508.086 421.456C-517.143 364.898 -470.798 305.449 -393.235 227.886L-389.285 223.935C-351.515 186.069 -315.769 150.419 -275.783 136.352C-217.683 115.925 -177.215 131.823 -145.323 150.034C-96.0874 178.072 -65.1585 216.035 -53.5964 262.765C-46.8577 289.816 -51.6609 316.098 -56.7625 344.012L-56.7759 344.086C-58.9161 355.723 -61.1026 367.638 -62.4656 379.896C-63.2115 376.32 -63.9979 372.685 -64.8248 368.991ZM-224.083 143.91C-263.721 152.11 -312.209 186.09 -375.215 249.18C-460.005 333.969 -492.282 392.358 -479.949 438.414C-467.616 484.567 -410.48 518.964 -294.665 549.989C-192.756 577.289 -128.894 579.597 -92.0524 556.782C-92.9585 557.592 -93.8887 558.379 -94.8434 559.142C-130.012 587.277 -191.58 584.386 -307.202 549.314C-420.608 515.013 -475.817 478.785 -486.416 431.958C-496.822 385.999 -464.737 329.922 -379.177 244.362C-343.43 208.712 -313.658 181.637 -284.27 165.546C-262.414 153.611 -242.585 146.433 -224.083 143.91ZM-76.7975 546.228C-76.7355 546.134 -76.6736 546.04 -76.6118 545.946C-76.8911 546.662 -77.1714 547.376 -77.4529 548.087C-77.2332 547.47 -77.0148 546.85 -76.7975 546.228Z" fill="url(#paint0_linear_8480_6004)"/>
<path fill-rule="evenodd" clip-rule="evenodd" d="M-238.688 72.3754C-178.599 72.3754 -132.612 109.982 -91.4419 143.649L-81.0571 152.154C-33.5558 190.791 25.5076 238.871 32.734 311.038C37.2625 356.42 13.6564 394.093 -9.17889 430.514C-20.163 447.954 -31.4361 466.068 -39.4333 484.663L-39.4372 484.673C-42.9045 492.859 -46.3718 501.046 -49.7429 509.233L-49.7917 509.35C-79.7389 581.185 -108.07 649.142 -170.953 661.95C-229.824 673.994 -286.575 639.211 -352.287 598.936C-364.523 591.421 -377.242 583.616 -390.249 576.005C-470.606 528.696 -549.422 476.088 -554.721 399.97C-559.731 327.707 -497.585 265.56 -431.776 199.945L-423.683 191.851C-417.324 185.492 -410.965 179.036 -404.605 172.388L-404.458 172.237C-361.049 127.673 -316.186 81.6163 -258.826 73.8207C-251.985 72.8571 -245.24 72.4717 -238.688 72.4717V72.3754ZM-13.1802 430.311L-12.1658 428.683C10.3805 392.744 33.6975 355.552 29.2654 311.327C22.1353 240.605 -36.2537 193.007 -83.2732 154.756L-93.4069 146.456C-140.71 107.727 -189.653 67.6553 -258.44 77.0966C-314.709 84.8047 -359.224 130.475 -402.293 174.701C-405.593 178.05 -408.868 181.399 -412.118 184.723L-412.121 184.726C-415.227 187.903 -418.31 191.056 -421.371 194.164L-429.478 202.271C-494.703 267.399 -556.359 328.964 -551.445 399.681C-546.242 474.161 -468.101 526.191 -388.611 573.018C-375.604 580.726 -362.885 588.434 -350.649 596.046C-285.611 635.935 -229.342 670.429 -171.82 658.674C-110.733 646.149 -82.6951 578.992 -53.1152 507.981C-49.7429 499.791 -46.2742 491.601 -42.8055 483.411L-42.6129 483.315C-34.8616 465.104 -23.8516 447.436 -13.1802 430.311Z" fill="url(#paint1_linear_8480_6004)"/>
<path fill-rule="evenodd" clip-rule="evenodd" d="M-83.1029 138.746C-126.553 100.884 -175.303 58.4034 -239.272 58.4034V58.3071C-244.186 58.3071 -249.196 58.5961 -254.303 59.0779C-316.16 65.4371 -363.373 114.191 -409.043 161.403C-416.27 168.919 -423.496 176.338 -430.626 183.468L-430.643 183.485C-435.744 188.586 -440.845 193.687 -445.946 198.691L-446.235 198.979C-509.527 261.886 -569.27 321.265 -565.422 394.381C-561.375 470.595 -489.882 523.299 -403.84 579.569C-390.351 588.337 -377.055 597.49 -364.24 606.354C-303.442 648.267 -246.017 687.771 -184.063 678.329C-117.773 668.212 -82.4118 599.513 -48.207 533.031C-46.6838 530.112 -45.1711 527.192 -43.6619 524.28C-40.5888 518.349 -37.5304 512.446 -34.4287 506.631C-24.9863 488.806 -12.4606 471.27 -0.320297 454.312C27.9107 414.904 57.1052 374.051 53.2511 323.37C47.7591 250.432 -12.0752 199.366 -60.2509 158.416L-61.9789 156.948L-61.9836 156.944C-65.2333 154.184 -68.4134 151.482 -71.524 148.781C-75.3781 145.505 -79.2322 142.133 -83.0862 138.761L-83.1029 138.746ZM-2.9218 452.481C-15.1584 469.535 -27.7805 487.168 -37.3193 505.185L-37.2229 505.089C-41.8478 513.857 -46.4727 522.721 -51.0012 531.586C-84.8206 597.394 -119.796 665.322 -184.544 675.246C-245.246 684.592 -302.19 645.377 -362.409 603.849C-364.219 602.607 -366.035 601.358 -367.857 600.106L-367.858 600.105C-379.03 592.424 -390.425 584.589 -402.106 576.967C-487.377 521.18 -558.292 468.957 -562.242 394.285C-565.999 322.528 -506.593 263.577 -443.7 201.166L-443.634 201.1C-441.084 198.551 -438.535 196.025 -435.985 193.5L-435.962 193.477C-433.413 190.951 -430.863 188.426 -428.314 185.876C-421.184 178.746 -413.957 171.327 -406.731 163.812L-406.379 163.449C-361.204 116.831 -314.558 68.6968 -254.014 62.4501C-183.966 55.3202 -131.455 100.991 -85.206 141.266L-85.1888 141.28C-81.3405 144.648 -77.4921 148.015 -73.6438 151.286C-70.5336 153.987 -67.3539 156.688 -64.1046 159.448L-64.1017 159.451L-63.9348 159.593C-63.4152 160.034 -62.8938 160.477 -62.3707 160.921C-14.6767 201.485 44.6758 252.07 50.0715 323.659C53.7329 373.184 24.9238 413.555 -2.9218 452.481Z" fill="url(#paint2_linear_8480_6004)"/>
<path fill-rule="evenodd" clip-rule="evenodd" d="M-239.261 44.2401C-171.429 44.2401 -119.881 91.7415 -74.2105 133.847C-72.4191 135.487 -70.6372 137.126 -68.8619 138.76C-65.0036 142.31 -61.1763 145.832 -57.349 149.263C-52.5828 153.528 -47.6715 157.865 -42.678 162.274L-40.3911 164.294C11.2533 209.772 69.7386 261.416 73.689 335.607C76.6759 392.261 41.3159 436.486 7.1116 479.265L7.11014 479.267C-5.70461 495.261 -18.9048 511.834 -29.5998 528.503C-35.3809 537.56 -41.2583 547.099 -46.943 556.348L-46.9697 556.392C-86.5619 620.741 -127.509 687.292 -197.251 694.805C-262.963 701.743 -319.04 658.577 -378.489 612.81C-380.237 611.472 -381.993 610.127 -383.756 608.777L-383.836 608.715C-394.867 600.264 -406.153 591.617 -417.511 583.327L-421.847 580.243C-496.23 526.287 -573.022 470.499 -576.105 388.986C-578.9 314.506 -517.62 254.19 -458.364 195.897L-437.552 175.374C-429.651 167.474 -421.943 159.477 -413.753 150.901L-413.685 150.83C-365.723 100.942 -316.118 49.3445 -249.859 44.6255C-246.294 44.3364 -242.729 44.2401 -239.261 44.2401ZM-211.319 692.589C-206.79 692.589 -202.165 692.397 -197.54 691.819C-129.227 684.496 -88.6632 618.591 -49.4482 554.807C-43.7634 545.557 -37.886 536.018 -32.1049 526.961C-21.4099 510.196 -8.11339 493.527 4.7977 477.436C38.6171 435.138 73.5927 391.298 70.7021 335.8C66.8481 262.862 8.84446 211.699 -42.3182 166.607L-44.6125 164.58L-44.6214 164.572L-44.6279 164.567L-44.6524 164.545L-44.6626 164.536C-49.6362 160.144 -54.5282 155.824 -59.276 151.576C-63.1017 148.146 -66.9274 144.626 -70.7839 141.077L-70.7881 141.073C-72.5637 139.439 -74.3459 137.799 -76.1375 136.159C-123.735 92.3195 -177.788 42.6022 -249.57 47.7087C-314.704 52.43 -363.939 103.593 -411.537 153.117C-419.342 161.307 -427.435 169.69 -435.336 177.591C-439.897 182.152 -444.544 186.713 -449.191 191.274C-451.513 193.554 -453.836 195.834 -456.148 198.113C-517.716 258.622 -575.816 315.759 -573.022 388.889C-570.038 468.871 -493.889 524.144 -420.158 577.662L-419.92 577.835L-415.584 580.918C-402.287 590.553 -389.184 600.67 -376.465 610.498L-376.418 610.534C-321.708 652.723 -269.884 692.686 -211.126 692.686L-211.319 692.589Z" fill="url(#paint3_linear_8480_6004)"/>
<path fill-rule="evenodd" clip-rule="evenodd" d="M-64.6748 129.028C-112.658 82.4905 -166.904 29.8826 -238.686 29.8826V29.7862C-240.9 29.7862 -243.114 29.8824 -245.329 29.9787L-245.334 29.9789C-316.152 33.1586 -368.182 87.5971 -418.477 140.301C-427.342 149.647 -436.206 158.897 -444.396 167.087C-450.608 173.299 -457.041 179.566 -463.402 185.762L-463.403 185.764L-463.413 185.773C-465.435 187.742 -467.449 189.705 -469.447 191.657L-469.543 191.75C-528.095 248.664 -588.537 307.416 -586.707 383.493C-584.78 464.042 -511.457 522.72 -446.708 574.461C-443.951 576.708 -441.167 578.927 -438.399 581.134L-438.395 581.137C-435.941 583.094 -433.499 585.04 -431.099 586.987C-418.67 597.007 -406.144 607.702 -394.1 618.108L-393.923 618.261C-337.901 666.293 -280.043 715.9 -210.262 711.28C-137.035 706.366 -90.5933 641.907 -45.6935 579.568C-38.4671 569.451 -31.5298 559.912 -24.4962 550.566C-13.223 535.632 -0.600998 521.179 12.8882 505.955C53.934 459.418 96.3286 411.338 94.2089 347.939C91.7074 272.124 31.947 217.925 -20.7975 170.09L-21.0275 169.881L-23.2815 167.853C-30.1674 161.659 -36.7473 155.741 -43.092 149.744C-50.222 143.096 -57.2557 136.255 -64.6748 129.028ZM-210.455 708.582C-213.441 708.871 -216.428 708.871 -219.415 708.871V708.679C-284.163 708.679 -339.084 661.563 -392.27 615.892C-393.369 614.952 -394.471 614.007 -395.578 613.059C-406.598 603.62 -417.973 593.877 -429.269 584.771C-433.348 581.461 -437.489 578.152 -441.691 574.793L-441.703 574.784C-442.757 573.941 -443.815 573.095 -444.878 572.245L-444.926 572.206C-512.261 518.358 -581.89 462.674 -583.817 383.396C-585.646 308.569 -525.586 250.202 -467.513 193.767L-467.424 193.68C-459.138 185.683 -450.562 177.3 -442.373 169.11C-434.233 160.971 -426.18 152.571 -417.72 143.745L-416.358 142.325L-416.324 142.289C-366.424 90.0775 -314.787 36.0483 -245.141 32.8694C-171.047 29.5935 -115.548 83.454 -66.5054 131.052C-59.0864 138.278 -52.0527 145.023 -44.9227 151.767C-37.7927 158.415 -30.5663 165.064 -22.8582 172.001L-22.8256 172.031C29.5817 219.525 89.0064 273.378 91.511 348.035C93.6308 410.375 51.5252 458.069 10.8648 504.125L9.18004 506.038C-3.69099 520.651 -15.9095 534.524 -26.7122 548.928C-33.8423 558.37 -41.0686 568.391 -48.0059 578.026C-92.5203 639.787 -138.673 703.765 -210.455 708.582Z" fill="url(#paint4_linear_8480_6004)"/>
<path fill-rule="evenodd" clip-rule="evenodd" d="M-237.62 15.431C-161.888 15.431 -104.944 73.2419 -54.6485 124.308C-53.0712 125.902 -51.5119 127.482 -49.9662 129.047L-49.9583 129.055C-42.7258 136.38 -35.7932 143.401 -28.7299 150.227C-20.856 157.922 -12.6496 165.534 -4.03377 173.525L-1.94762 175.461C52.1793 225.639 113.582 282.562 114.834 360.273C115.987 431.129 65.5294 483.375 16.6821 533.953L16.3625 534.284C3.64415 547.387 -8.30342 559.817 -19.3838 572.535C-27.7664 582.17 -36.0527 592.095 -44.8206 602.693L-45.2905 603.257C-93.0616 660.545 -147.107 725.357 -223.36 727.757C-298.032 730.07 -355.361 675.342 -410.86 622.349L-411.56 621.679L-411.562 621.677C-422.424 611.287 -433.644 600.555 -444.679 590.746C-452.58 583.712 -460.577 576.678 -468.96 569.356L-469.052 569.275C-528.768 517.169 -596.433 458.125 -597.396 378.098C-598.263 300.262 -538.069 242.556 -479.788 186.683L-479.751 186.648C-470.309 177.59 -460.481 168.148 -451.328 158.995C-442.596 150.263 -434.036 141.273 -424.999 131.783L-424.991 131.775L-424.989 131.773L-423.118 129.808C-372.888 76.9797 -316.013 17.1625 -240.896 15.6236H-237.716L-237.62 15.431ZM-20.5401 571.668L-21.5036 570.801C-11.0018 558.747 0.365524 546.952 12.3523 534.515L14.3392 532.453C62.9003 482.254 113.196 430.224 112.136 360.273C110.884 283.734 49.9899 227.205 -3.74292 177.324L-6.31366 174.939C-14.7664 167.099 -22.832 159.619 -30.657 152.057C-39.2322 143.771 -47.7112 135.196 -56.6719 126.042C-106.582 75.3615 -163.044 18.0323 -237.813 18.0323H-240.896C-315.087 19.574 -371.645 79.1193 -421.555 131.727L-422.918 133.159C-432.056 142.754 -440.781 151.917 -449.593 160.729C-458.747 169.882 -468.575 179.325 -478.017 188.382L-478.053 188.417C-535.949 243.904 -595.758 301.225 -594.795 377.905C-593.928 456.817 -526.674 515.495 -467.322 567.236C-465.188 569.104 -463.084 570.941 -461.004 572.756L-460.975 572.782C-454.804 578.17 -448.847 583.371 -442.945 588.626C-433.244 597.332 -423.401 606.679 -413.722 615.871C-412.153 617.361 -410.588 618.847 -409.029 620.326C-355.072 671.97 -299.285 725.252 -227.985 725.252H-223.456C-148.206 722.844 -94.4417 658.192 -47.0367 601.055C-45.625 599.364 -44.2258 597.686 -42.8366 596.019C-35.5979 587.336 -28.6329 578.981 -21.5999 570.897L-20.6364 571.764L-20.5401 571.668Z" fill="url(#paint5_linear_8480_6004)"/>
<path fill-rule="evenodd" clip-rule="evenodd" d="M-236.374 0.978027C-156.595 0.978027 -97.0495 63.9919 -44.4416 119.683L-42.8257 121.39C-33.1117 131.65 -23.8805 141.4 -14.4763 150.805C-4.64847 160.632 5.66115 170.46 16.6452 180.77C72.24 233.185 135.254 292.827 135.254 372.606C135.254 452.211 72.4179 511.671 16.9117 564.195L14.8447 566.151C4.58347 575.866 -5.16768 585.098 -14.5727 594.503C-24.4005 604.331 -34.132 614.641 -44.4416 625.625L-44.6058 625.798C-97.1734 681.351 -156.678 744.233 -236.374 744.233C-316.153 744.233 -375.698 681.22 -428.306 625.528L-430.233 623.493C-439.833 613.353 -448.962 603.71 -458.175 594.407C-468.003 584.579 -478.312 574.751 -489.297 564.442L-489.659 564.098C-545.165 511.575 -608.002 452.115 -608.002 372.509C-608.002 292.73 -544.988 233.185 -489.297 180.577C-487.746 179.109 -486.205 177.652 -484.674 176.205L-484.672 176.203L-484.666 176.197C-475.451 167.487 -466.601 159.12 -458.175 150.612C-448.944 141.38 -439.797 131.724 -430.097 121.483L-430.095 121.481L-428.21 119.49C-375.602 63.7993 -316.057 0.785278 -236.277 0.785278L-236.374 0.978027ZM-236.374 741.825C-157.655 741.825 -98.3985 679.196 -46.176 623.89C-44.7081 622.34 -43.2519 620.8 -41.8053 619.269C-33.0913 610.051 -24.7219 601.197 -16.2106 592.769C-6.82256 583.381 3.09308 573.993 13.4522 564.185L15.0924 562.632C70.3536 510.355 132.845 451.239 132.845 372.606C132.845 293.887 70.2166 234.63 14.9109 182.408C3.92682 172.098 -6.3828 162.367 -16.2106 152.443C-25.6143 143.039 -34.845 133.289 -44.5584 123.029L-46.176 121.321C-98.3985 66.0153 -157.655 3.38684 -236.374 3.38684C-315.093 3.38684 -374.349 66.0153 -426.572 121.321L-427.959 122.786C-437.765 133.143 -447.151 143.057 -456.537 152.443C-465.94 161.846 -475.69 171.076 -485.949 180.789L-487.659 182.408C-542.964 234.63 -605.593 293.887 -605.593 372.606C-605.593 451.325 -542.964 510.581 -487.659 562.804C-476.674 573.113 -466.365 582.845 -456.537 592.769C-446.709 602.693 -436.881 613.003 -426.572 623.89C-374.349 679.196 -315.093 741.825 -236.374 741.825Z" fill="url(#paint6_linear_8480_6004)"/>
<defs>
<linearGradient id="paint0_linear_8480_6004" x1="135.254" y1="744.233" x2="-608.194" y2="0.977991" gradientUnits="userSpaceOnUse">
<stop stop-color="#F1EDFF"/>
<stop offset="0.5" stop-color="#6633FF"/>
<stop offset="1" stop-color="#FF3300"/>
</linearGradient>
<linearGradient id="paint1_linear_8480_6004" x1="135.254" y1="744.233" x2="-608.194" y2="0.977991" gradientUnits="userSpaceOnUse">
<stop stop-color="#F1EDFF"/>
<stop offset="0.5" stop-color="#6633FF"/>
<stop offset="1" stop-color="#FF3300"/>
</linearGradient>
<linearGradient id="paint2_linear_8480_6004" x1="135.254" y1="744.233" x2="-608.194" y2="0.977991" gradientUnits="userSpaceOnUse">
<stop stop-color="#F1EDFF"/>
<stop offset="0.5" stop-color="#6633FF"/>
<stop offset="1" stop-color="#FF3300"/>
</linearGradient>
<linearGradient id="paint3_linear_8480_6004" x1="135.254" y1="744.233" x2="-608.194" y2="0.977991" gradientUnits="userSpaceOnUse">
<stop stop-color="#F1EDFF"/>
<stop offset="0.5" stop-color="#6633FF"/>
<stop offset="1" stop-color="#FF3300"/>
</linearGradient>
<linearGradient id="paint4_linear_8480_6004" x1="135.254" y1="744.233" x2="-608.194" y2="0.977991" gradientUnits="userSpaceOnUse">
<stop stop-color="#F1EDFF"/>
<stop offset="0.5" stop-color="#6633FF"/>
<stop offset="1" stop-color="#FF3300"/>
</linearGradient>
<linearGradient id="paint5_linear_8480_6004" x1="135.254" y1="744.233" x2="-608.194" y2="0.977991" gradientUnits="userSpaceOnUse">
<stop stop-color="#F1EDFF"/>
<stop offset="0.5" stop-color="#6633FF"/>
<stop offset="1" stop-color="#FF3300"/>
</linearGradient>
<linearGradient id="paint6_linear_8480_6004" x1="135.254" y1="744.233" x2="-608.194" y2="0.977991" gradientUnits="userSpaceOnUse">
<stop stop-color="#F1EDFF"/>
<stop offset="0.5" stop-color="#6633FF"/>
<stop offset="1" stop-color="#FF3300"/>
</linearGradient>
</defs>
</svg>
