<svg width="167" height="672" viewBox="0 0 167 672" fill="none" xmlns="http://www.w3.org/2000/svg">
<path fill-rule="evenodd" clip-rule="evenodd" d="M236.274 524.623C274.392 553.789 316.846 586.273 372.852 586.273L372.755 586.466C381.234 586.466 390.099 585.695 399.252 584.057C452.245 574.615 495.025 531.064 536.36 488.958L536.366 488.952C541.856 483.366 547.346 477.779 552.74 472.386L553.232 471.893C624.708 400.321 686.365 338.582 680.02 266.964C674.046 198.94 608.72 151.054 512.561 100.084C501.192 94.0135 490.208 88.0398 479.416 82.1623L479.274 82.0847C407.174 42.9063 350.172 11.9319 293.843 26.8566C247.291 39.2104 223.235 85.0735 203.443 140.228C196.795 151.118 192.318 164.345 190.007 180.189C189.169 182.785 188.33 185.387 187.49 187.994L187.471 188.053C186.906 189.794 186.342 191.542 185.775 193.294C184.023 198.713 182.258 204.174 180.438 209.635C174.175 228.52 164.54 246.827 155.097 264.459L154.872 264.885C137.02 298.572 118.602 333.328 123.783 373.626C133.129 445.6 192.674 491.271 236.129 524.512L236.274 524.623ZM188.398 197.342C186.954 201.825 185.497 206.309 184.003 210.792L182.268 210.213H182.172L183.906 210.792C177.685 229.84 167.944 248.127 158.559 265.749L158.373 266.097C140.645 299.339 122.338 333.832 127.444 373.047C136.494 443.521 195.279 488.598 238.243 521.543L238.345 521.621L238.52 521.755C281.835 554.867 330.838 592.327 398.77 580.299C450.704 571.05 493.002 527.981 533.951 486.26C534.843 485.354 535.731 484.447 536.618 483.541C537.103 483.046 537.587 482.551 538.071 482.056L538.104 482.022L538.107 482.02C542.181 477.855 546.229 473.718 550.331 469.688C621.438 398.581 682.814 337.205 676.552 267.157C670.289 196.917 593.304 146.814 511.02 103.167C499.65 97.0968 488.57 91.123 477.875 85.2456C406.382 46.3195 349.92 15.5834 294.903 30.2289C269.151 37.076 250.424 54.7783 235.462 78.8627C247.031 62.0743 261.565 49.6705 280.74 43.2356C335.226 24.8814 396.899 54.5428 474.937 92.0742L475.562 92.3748C483.174 96.0362 490.979 99.7939 498.976 103.648C641.383 171.479 665.086 221.389 669.422 261.279C676.648 327.472 622.787 387.018 545.899 463.906C543.683 466.122 541.491 468.338 539.299 470.554C537.107 472.771 534.915 474.987 532.699 477.203C493.387 516.996 452.631 558.234 403.877 569.218C392.122 571.82 380.945 573.072 370.25 573.072V573.169C322.942 573.169 285.268 549.755 250.389 524.993C201.346 490.306 154.616 449.357 144.306 385.861C138.525 349.922 152.303 317.548 165.792 286.234C173.308 268.698 181.112 250.487 185.448 231.699L188.394 218.855C188.078 211.276 188.079 204.11 188.398 197.342ZM195.976 173.83C194.494 181.234 193.558 189.3 193.168 198.066C193.694 195.796 194.22 193.539 194.748 191.293C195.163 184.26 195.85 177.554 196.837 171.188C196.55 172.068 196.263 172.948 195.976 173.83ZM189.236 232.11L189.109 232.663C184.677 251.74 176.873 270.143 169.261 287.872L169.048 288.37C155.348 320.463 142.408 350.776 148.064 385.476C158.181 447.526 204.237 487.801 252.605 522.102C296.349 553.128 340.767 579.817 403.01 565.75C450.603 555.077 490.808 514.374 529.658 475.044L529.905 474.794C532.117 472.581 534.306 470.368 536.495 468.156L536.505 468.146C538.697 465.93 540.889 463.713 543.105 461.497C619.222 385.38 672.601 326.509 665.567 261.953C657.956 192.773 576.25 144.983 497.241 107.309C489.244 103.455 481.44 99.6975 473.828 96.0362C412.259 66.3599 361 41.6939 315.812 41.6939L315.908 41.5976C304.153 41.5976 292.88 43.2356 281.896 46.9933C264.37 52.8868 250.829 64.1327 239.903 79.3776C247.598 70.9373 256.715 64.2972 267.642 59.7119C321.465 37.1815 387.795 65.5494 479.614 104.818L479.808 104.901L485.493 107.31C566.043 141.803 649.676 186.318 658.925 255.787C667.597 321.21 609.786 385.091 539.161 455.717L529.911 465.063C492.237 502.929 453.311 542.047 408.701 554.669C393.574 558.909 379.314 560.836 366.017 560.836H365.824C326.224 560.836 294.042 544.36 264.848 525.475C228.234 501.869 178.035 463.039 164.931 398.195C158.572 366.399 167.533 337.686 177.072 307.239L177.13 307.054C182.507 289.864 188.065 272.101 190.561 253.667L191.116 249.599C190.334 243.56 189.708 237.732 189.236 232.11ZM193.852 229.434C193.474 224.582 193.216 219.893 193.078 215.363C193.475 213.633 193.871 211.909 194.266 210.189C194.287 214.716 194.396 219.356 194.588 224.105C194.342 225.872 194.097 227.649 193.852 229.434ZM193.035 262.92C190.233 278.179 185.643 292.927 181.196 307.217L180.725 308.729C171.418 338.571 162.642 366.706 168.786 397.424C181.504 460.727 230.932 498.882 266.968 522.103C305.219 546.769 348.77 567.292 407.448 550.815C451.095 538.482 489.636 499.749 526.924 462.268L536.174 452.922C606.125 382.971 663.261 319.957 654.782 256.365C645.822 188.919 563.345 145.079 483.759 111.067L478.074 108.658L477.964 108.612C409.028 79.1502 354.527 55.8579 309.459 55.8579L309.555 55.7615C295.199 55.7615 281.709 58.1703 269.087 63.4696C256.597 68.6932 246.552 76.8311 238.327 87.4467C243.057 83.0768 248.34 79.3494 254.248 76.2841C304.158 50.2692 372.761 73.2009 471.617 111.067C585.119 154.522 639.558 197.494 648.037 250.295C657.383 308.588 610.556 369 532.03 447.526L527.667 451.889C489.665 489.891 453.837 525.719 413.035 540.024C393.476 546.865 375.651 549.659 359.56 549.659V549.755C326.223 549.755 299.919 537.904 279.107 526.053C228.811 497.34 197.304 458.51 185.357 410.624C178.426 382.707 183.325 355.944 188.523 327.548L188.536 327.472C191.583 311.004 194.629 294.066 195.352 276.471C194.505 271.849 193.733 267.332 193.035 262.92ZM196.353 252.293C196.061 250.176 195.788 248.084 195.534 246.019L195.808 243.984C195.994 246.3 196.196 248.639 196.413 250.999C196.393 251.43 196.373 251.861 196.353 252.293ZM210.971 324.792C212.313 330.131 213.731 335.584 215.223 341.154C245.767 455.138 279.104 511.214 323.33 523.066C367.555 534.917 424.499 503.025 507.939 419.584C591.38 336.144 623.272 279.2 611.421 234.975C599.57 190.749 543.493 157.412 429.509 126.868C374.107 112.03 330.267 104.611 296.062 104.611C259.931 104.611 234.59 112.897 217.921 129.566C217.667 129.82 217.415 130.076 217.165 130.335C217.026 130.736 216.889 131.139 216.753 131.543C214.918 137.334 213.237 143.399 211.68 149.717C206.894 170.435 204.15 194.923 202.299 222.844C202.221 238.371 202.693 255.269 203.571 273.579C205.37 288.155 207.626 303.473 210.224 319.475L210.128 319.379C210.417 321.195 210.698 322.999 210.971 324.792ZM216.181 362.76C241.964 451.658 270.274 501.923 305.686 521.129C273.336 507.224 246.943 476.395 230.94 433.844C222.881 412.385 219.588 389.223 216.181 362.76ZM206.917 328.677C208.427 338.818 209.692 348.632 210.899 358.208C214.464 385.958 217.836 412.069 226.604 435.482C243.755 481.057 272.66 513.527 308.021 527.113C320.065 531.738 332.302 534.05 345.213 534.05V534.243C368.626 534.243 393.87 526.535 422.39 510.926C452.163 494.546 482.321 467.278 518.26 431.243C605.073 344.334 637.543 287.005 626.752 239.311C615.768 190.653 559.595 153.365 444.455 118.486C330.185 83.7449 267.613 80.3886 230.702 107.258C234.488 103.201 238.723 99.6568 243.445 96.6158C286.321 69.0592 354.056 83.8974 456.671 118.969C569.306 157.51 623.744 196.532 633.09 245.672C643.689 301.074 596.38 361.968 522.093 436.255C483.071 475.277 450.504 506.399 416.01 521.429C371.785 540.7 333.534 541.085 295.475 522.682C271.58 511.12 228.703 482.6 210.204 421.802C202.93 397.877 203.832 373.096 204.788 346.799L204.808 346.262C205.092 338.6 205.376 330.821 205.466 322.893C205.94 324.806 206.424 326.734 206.917 328.677ZM200.825 303.242C201.409 317.949 200.893 332.202 200.376 346.07C199.316 372.952 198.449 398.292 205.964 423.055C225.042 485.49 268.978 514.781 293.548 526.632C312.818 535.979 332.088 540.603 352.129 540.603C372.941 540.603 394.62 535.593 417.745 525.476C452.913 510.06 485.769 478.746 525.177 439.338C600.427 364.087 648.41 302.23 637.426 244.804C627.791 193.834 572.485 153.752 458.116 114.73C354.249 79.2725 285.454 64.338 241.132 92.858C238.841 94.3358 236.659 95.9223 234.583 97.6187C240.62 90.2847 247.772 84.3709 256.272 79.9454C270.435 72.6227 286.237 69.3468 303.966 69.3468L304.062 69.2504C346.938 69.2504 401.184 88.328 470.365 114.825C582.325 157.605 635.896 199.614 644.086 250.777C653.143 307.335 606.798 366.784 529.235 444.347L525.285 448.297C487.515 486.163 451.769 521.813 411.783 535.881C353.683 556.307 313.215 540.409 281.323 522.199C232.087 494.161 201.159 456.198 189.596 409.468C182.858 382.417 187.661 356.135 192.762 328.221L192.776 328.147C194.916 316.51 197.103 304.595 198.466 292.336C199.212 295.913 199.998 299.548 200.825 303.242ZM360.083 528.323C399.721 520.123 448.209 486.142 511.215 423.053C596.005 338.263 628.282 279.874 615.949 233.818C603.616 187.666 546.48 153.269 430.665 122.243C328.756 94.9432 264.894 92.6353 228.052 115.451C228.958 114.64 229.889 113.853 230.843 113.09C266.012 84.9556 327.58 87.8462 443.202 122.918C556.608 157.219 611.817 193.447 622.416 240.274C632.822 286.234 600.737 342.31 515.177 427.871C479.43 463.521 449.658 490.595 420.27 506.686C398.414 518.621 378.585 525.799 360.083 528.323ZM212.798 126.005C212.735 126.099 212.674 126.193 212.612 126.287C212.891 125.571 213.171 124.857 213.453 124.145C213.233 124.763 213.015 125.383 212.798 126.005Z" fill="url(#paint0_linear_8480_17)"/>
<path fill-rule="evenodd" clip-rule="evenodd" d="M374.688 599.857C314.599 599.857 268.612 562.251 227.442 528.583L217.057 520.078C169.556 481.441 110.492 433.362 103.266 361.195C98.7375 315.813 122.344 278.14 145.179 241.719C156.163 224.279 167.436 206.165 175.433 187.569L175.437 187.56C178.905 179.373 182.372 171.186 185.743 163L185.792 162.883C215.739 91.0475 244.07 23.0902 306.953 10.2824C365.824 -1.76154 422.575 33.0213 488.287 73.2963C500.523 80.8117 513.242 88.6161 526.249 96.2279C606.606 143.536 685.422 196.144 690.721 272.262C695.731 344.526 633.585 406.672 567.776 472.288L559.683 480.381C553.324 486.741 546.965 493.196 540.605 499.844L540.458 499.996C497.049 544.559 452.186 590.616 394.826 598.412C387.985 599.375 381.24 599.761 374.688 599.761V599.857ZM149.18 241.921L148.166 243.549C125.62 279.488 102.302 316.68 106.735 360.905C113.865 431.628 172.254 479.225 219.273 517.477L229.407 525.777C276.71 564.506 325.653 604.577 394.44 595.136C450.709 587.428 495.224 541.757 538.293 497.532C541.593 494.183 544.868 490.833 548.118 487.51L548.121 487.506C551.227 484.329 554.31 481.176 557.371 478.069L565.478 469.962C630.703 404.833 692.359 343.268 687.445 272.551C682.242 198.071 604.101 146.042 524.611 99.2148C511.604 91.5067 498.885 83.7986 486.649 76.1868C421.611 36.2973 365.342 1.80346 307.82 13.5583C246.733 26.084 218.695 93.241 189.115 164.252C185.743 172.442 182.274 180.632 178.806 188.822L178.613 188.918C170.862 207.129 159.852 224.797 149.18 241.921Z" fill="url(#paint1_linear_8480_17)"/>
<path fill-rule="evenodd" clip-rule="evenodd" d="M219.103 533.487C262.553 571.349 311.303 613.829 375.272 613.829V613.926C380.186 613.926 385.196 613.636 390.303 613.155C452.16 606.796 499.373 558.042 545.043 510.829C552.27 503.314 559.496 495.895 566.626 488.765L566.643 488.748C571.744 483.647 576.845 478.546 581.946 473.541L582.235 473.254C645.527 410.347 705.27 350.967 701.422 277.852C697.375 201.637 625.882 148.933 539.84 92.6639C526.351 83.8959 513.055 74.7425 500.24 65.8782C439.442 23.9653 382.017 -15.5388 320.063 -6.09639C253.773 4.02052 218.412 72.7191 184.207 139.202C182.684 142.121 181.171 145.041 179.662 147.953C176.589 153.884 173.53 159.786 170.429 165.602C160.986 183.427 148.461 200.963 136.32 217.921C108.089 257.329 78.8948 298.182 82.7489 348.863C88.2409 421.801 148.075 472.867 196.251 513.816L197.979 515.284L197.984 515.288C201.233 518.049 204.413 520.75 207.524 523.451C211.378 526.727 215.232 530.1 219.086 533.472L219.103 533.487ZM138.922 219.752C151.158 202.697 163.78 185.065 173.319 167.047L173.223 167.144C177.848 158.376 182.473 149.511 187.001 140.647C220.821 74.8389 255.796 6.91106 320.544 -3.01315C381.246 -12.3592 438.19 26.8558 498.409 68.3833C500.219 69.6261 502.035 70.8745 503.857 72.127L503.858 72.1278C515.03 79.8091 526.425 87.6441 538.106 95.2654C623.377 151.053 694.292 203.275 698.242 277.948C701.999 349.704 642.593 408.655 579.7 471.067L579.634 471.133C577.084 473.682 574.535 476.207 571.985 478.733L571.962 478.756C569.413 481.281 566.863 483.807 564.314 486.356C557.184 493.486 549.957 500.905 542.731 508.421L542.379 508.784C497.204 555.401 450.558 603.536 390.014 609.782C319.966 616.912 267.455 571.242 221.206 530.967L221.189 530.952C217.34 527.585 213.492 524.217 209.644 520.946C206.534 518.245 203.354 515.544 200.105 512.784L200.102 512.782L199.935 512.64C199.415 512.199 198.894 511.756 198.371 511.311C150.677 470.747 91.3242 420.163 85.9285 348.573C82.2671 299.049 111.076 258.678 138.922 219.752Z" fill="url(#paint2_linear_8480_17)"/>
<path fill-rule="evenodd" clip-rule="evenodd" d="M375.261 627.992C307.429 627.992 255.881 580.491 210.211 538.386C208.419 536.746 206.637 535.106 204.862 533.473C201.004 529.923 197.176 526.401 193.349 522.969C188.583 518.705 183.672 514.368 178.678 509.958L176.391 507.939C124.747 462.461 66.2614 410.816 62.311 336.626C59.3241 279.972 94.6841 235.747 128.888 192.967L128.89 192.965C141.705 176.971 154.905 160.399 165.6 143.73C171.381 134.673 177.258 125.134 182.943 115.884L182.97 115.841C222.562 51.4917 263.509 -15.0591 333.251 -22.5728C398.963 -29.5101 455.04 13.6553 514.489 59.4223C516.237 60.7603 517.993 62.1056 519.756 63.4559L519.836 63.5178C530.867 71.9689 542.153 80.6157 553.511 88.9059L557.847 91.9891C632.23 145.946 709.022 201.733 712.105 283.247C714.9 357.727 653.62 418.043 594.364 476.335L573.552 496.858C565.651 504.759 557.943 512.756 549.753 521.331L549.685 521.403C501.723 571.291 452.118 622.888 385.859 627.607C382.294 627.896 378.729 627.992 375.261 627.992ZM347.319 -20.3567C342.79 -20.3567 338.165 -20.164 333.54 -19.5859C265.227 -12.2632 224.663 53.6412 185.448 117.426C179.763 126.676 173.886 136.214 168.105 145.271C157.41 162.037 144.113 178.705 131.202 194.796C97.3829 237.094 62.4073 280.934 65.2979 336.433C69.1519 409.371 127.156 460.534 178.318 505.626L180.612 507.652L180.621 507.66L180.628 507.666L180.652 507.688L180.663 507.697C185.636 512.089 190.528 516.409 195.276 520.657C199.102 524.087 202.927 527.607 206.784 531.156L206.788 531.16C208.564 532.793 210.346 534.433 212.138 536.073C259.735 579.913 313.788 629.63 385.57 624.524C450.704 619.803 499.939 568.64 547.537 519.115C555.342 510.925 563.435 502.543 571.336 494.642C575.897 490.081 580.544 485.52 585.191 480.958C587.513 478.679 589.836 476.399 592.148 474.119C653.716 413.61 711.816 356.474 709.022 283.343C706.038 203.361 629.889 148.088 556.158 94.5709L555.92 94.3979L551.584 91.3147C538.287 81.6795 525.184 71.5626 512.465 61.7348L512.418 61.6988C457.708 19.5101 405.884 -20.4531 347.126 -20.4531L347.319 -20.3567Z" fill="url(#paint3_linear_8480_17)"/>
<path fill-rule="evenodd" clip-rule="evenodd" d="M200.675 543.204C248.658 589.742 302.904 642.35 374.686 642.35V642.446C376.9 642.446 379.114 642.35 381.329 642.254L381.334 642.254C452.152 639.074 504.182 584.635 554.477 531.931C563.342 522.585 572.206 513.335 580.396 505.146C586.608 498.934 593.041 492.667 599.402 486.47L599.403 486.469L599.413 486.46C601.435 484.49 603.449 482.527 605.447 480.576L605.543 480.483C664.095 423.568 724.537 364.816 722.707 288.74C720.78 208.19 647.457 149.512 582.708 97.7715C579.951 95.5249 577.167 93.3053 574.399 91.0985L574.395 91.0956C571.941 89.139 569.499 87.1924 567.099 85.2458C554.67 75.2252 542.144 64.5302 530.1 54.1242L529.923 53.9716C473.901 5.93968 416.043 -43.6676 346.262 -39.0477C273.035 -34.1337 226.593 30.3254 181.694 92.6648C174.467 102.782 167.53 112.321 160.496 121.667C149.223 136.601 136.601 151.054 123.112 166.277C82.066 212.815 39.6714 260.895 41.7911 324.294C44.2926 400.109 104.053 454.307 156.797 502.143L157.027 502.351L159.282 504.379C166.167 510.573 172.747 516.492 179.092 522.489C186.222 529.137 193.256 535.978 200.675 543.204ZM346.455 -36.3498C349.441 -36.6389 352.428 -36.6389 355.415 -36.6389V-36.4462C420.163 -36.4462 475.084 10.6697 528.27 56.3403C529.369 57.2809 530.471 58.2255 531.578 59.1731C542.598 68.6126 553.973 78.3555 565.269 87.4618C569.348 90.7714 573.489 94.0809 577.691 97.4396L577.703 97.449C578.757 98.2918 579.815 99.1377 580.878 99.9875L580.926 100.026C648.261 153.875 717.89 209.558 719.817 288.836C721.646 363.663 661.586 422.031 603.513 478.466L603.424 478.553C595.138 486.55 586.562 494.932 578.373 503.122C570.233 511.262 562.18 519.662 553.72 528.487L552.358 529.908L552.324 529.944C502.424 582.155 450.787 636.184 381.141 639.363C307.047 642.639 251.548 588.779 202.505 541.181C195.086 533.955 188.053 527.21 180.923 520.465C173.793 513.817 166.566 507.169 158.858 500.232L158.826 500.202C106.418 452.708 46.9936 398.854 44.489 324.197C42.3692 261.858 84.4748 214.164 125.135 168.108L126.82 166.195C139.691 151.581 151.909 137.708 162.712 123.305C169.842 113.862 177.069 103.842 184.006 94.2064C228.52 32.4451 274.673 -31.5322 346.455 -36.3498Z" fill="url(#paint4_linear_8480_17)"/>
<path fill-rule="evenodd" clip-rule="evenodd" d="M373.62 656.802C297.888 656.802 240.944 598.991 190.648 547.924C189.071 546.33 187.512 544.751 185.966 543.186L185.958 543.178C178.726 535.852 171.793 528.831 164.73 522.006C156.856 514.311 148.65 506.699 140.034 498.707L137.948 496.772C83.8207 446.594 22.4181 389.671 21.1662 311.96C20.0125 241.103 70.4706 188.858 119.318 138.28L119.637 137.949C132.356 124.845 144.303 112.416 155.384 99.6974C163.766 90.0622 172.053 80.138 180.821 69.5394L181.29 68.9759C229.062 11.6881 283.107 -53.1239 359.36 -55.5249C434.032 -57.8373 491.361 -3.10965 546.86 49.8837L547.56 50.5534L547.562 50.5555C558.424 60.9457 569.644 71.678 580.679 81.487C588.58 88.5206 596.577 95.5543 604.96 102.877L605.052 102.958C664.768 155.064 732.433 214.108 733.396 294.135C734.263 371.97 674.069 429.677 615.788 485.549L615.751 485.585C606.309 494.642 596.481 504.085 587.328 513.238C578.596 521.97 570.036 530.959 560.999 540.449L560.991 540.458L560.989 540.459L559.118 542.425C508.888 595.253 452.013 655.07 376.896 656.609H373.716L373.62 656.802ZM156.54 100.565L157.504 101.432C147.002 113.486 135.634 125.281 123.648 137.718L121.661 139.78C73.0997 189.979 22.8042 242.009 23.8641 311.96C25.1156 388.498 86.0101 445.027 139.743 494.908L142.314 497.293C150.766 505.133 158.832 512.614 166.657 520.175C175.232 528.461 183.711 537.037 192.672 546.19C242.582 596.871 299.044 654.2 373.813 654.2H376.896C451.087 652.659 507.645 593.113 557.555 540.505L558.918 539.074C568.056 529.478 576.781 520.316 585.593 511.504C594.747 502.35 604.575 492.908 614.017 483.851L614.053 483.816C671.949 428.328 731.758 371.007 730.795 294.327C729.928 215.416 662.674 156.737 603.322 104.997C601.188 103.129 599.084 101.292 597.004 99.4762L596.975 99.4505C590.804 94.0623 584.847 88.8614 578.945 83.6067C569.244 74.9011 559.401 65.5534 549.722 56.3616C548.153 54.8715 546.588 53.3855 545.029 51.9071C491.072 0.262657 435.285 -53.0197 363.985 -53.0197H359.456C284.206 -50.6109 230.442 14.0409 183.037 71.1774C181.625 72.8683 180.226 74.5468 178.837 76.2132C171.598 84.8965 164.633 93.2516 157.6 101.335L156.636 100.468L156.54 100.565Z" fill="url(#paint5_linear_8480_17)"/>
<path fill-rule="evenodd" clip-rule="evenodd" d="M372.374 671.255C292.595 671.255 233.05 608.241 180.442 552.549L178.826 550.843C169.112 540.583 159.881 530.832 150.476 521.428C140.648 511.6 130.339 501.772 119.355 491.463C63.76 439.048 0.746094 379.406 0.746094 299.627C0.746094 220.021 63.5821 160.562 119.088 108.038L121.155 106.081C131.417 96.3663 141.168 87.1344 150.573 77.7294C160.401 67.9016 170.132 57.592 180.442 46.6079L180.606 46.4344C233.173 -9.1179 292.678 -72.0008 372.374 -72.0008C452.153 -72.0008 511.698 -8.98693 564.306 46.7042L566.233 48.74C575.833 58.8798 584.962 68.5221 594.175 77.8258C604.003 87.6536 614.312 97.4815 625.297 107.791L625.659 108.134C681.165 160.658 744.002 220.118 744.002 299.723C744.002 379.502 680.988 439.048 625.297 491.655C623.746 493.124 622.205 494.58 620.674 496.027L620.672 496.029L620.666 496.035C611.451 504.746 602.601 513.113 594.175 521.621C584.944 530.852 575.797 540.509 566.097 550.75L566.095 550.752L564.21 552.742C511.602 608.433 452.057 671.447 372.277 671.447L372.374 671.255ZM372.374 -69.592C293.655 -69.592 234.398 -6.96354 182.176 48.3422C180.708 49.8924 179.252 51.4328 177.805 52.9632C169.091 62.1814 160.722 71.0352 152.211 79.4637C142.823 88.8518 132.907 98.2399 122.548 108.048L120.908 109.601C65.6464 161.877 3.15488 220.994 3.15488 299.627C3.15488 378.346 65.7834 437.602 121.089 489.825C132.073 500.134 142.383 509.866 152.211 519.79C161.614 529.194 170.845 538.943 180.558 549.203L182.176 550.912C234.398 606.217 293.655 668.846 372.374 668.846C451.093 668.846 510.349 606.217 562.572 550.912L563.959 549.446C573.765 539.089 583.151 529.176 592.537 519.79C601.94 510.387 611.69 501.156 621.949 491.443L623.659 489.825C678.964 437.602 741.593 378.346 741.593 299.627C741.593 220.908 678.964 161.652 623.659 109.429C612.674 99.1194 602.365 89.3879 592.537 79.4637C582.709 69.5396 572.881 59.2299 562.572 48.3422C510.349 -6.96354 451.093 -69.592 372.374 -69.592Z" fill="url(#paint6_linear_8480_17)"/>
<defs>
<linearGradient id="paint0_linear_8480_17" x1="0.746094" y1="-72.0008" x2="744.194" y2="671.255" gradientUnits="userSpaceOnUse">
<stop stop-color="#F1EDFF"/>
<stop offset="0.5" stop-color="#6633FF"/>
<stop offset="1" stop-color="#FF3300"/>
</linearGradient>
<linearGradient id="paint1_linear_8480_17" x1="0.746094" y1="-72.0008" x2="744.194" y2="671.255" gradientUnits="userSpaceOnUse">
<stop stop-color="#F1EDFF"/>
<stop offset="0.5" stop-color="#6633FF"/>
<stop offset="1" stop-color="#FF3300"/>
</linearGradient>
<linearGradient id="paint2_linear_8480_17" x1="0.746094" y1="-72.0008" x2="744.194" y2="671.255" gradientUnits="userSpaceOnUse">
<stop stop-color="#F1EDFF"/>
<stop offset="0.5" stop-color="#6633FF"/>
<stop offset="1" stop-color="#FF3300"/>
</linearGradient>
<linearGradient id="paint3_linear_8480_17" x1="0.746094" y1="-72.0008" x2="744.194" y2="671.255" gradientUnits="userSpaceOnUse">
<stop stop-color="#F1EDFF"/>
<stop offset="0.5" stop-color="#6633FF"/>
<stop offset="1" stop-color="#FF3300"/>
</linearGradient>
<linearGradient id="paint4_linear_8480_17" x1="0.746094" y1="-72.0008" x2="744.194" y2="671.255" gradientUnits="userSpaceOnUse">
<stop stop-color="#F1EDFF"/>
<stop offset="0.5" stop-color="#6633FF"/>
<stop offset="1" stop-color="#FF3300"/>
</linearGradient>
<linearGradient id="paint5_linear_8480_17" x1="0.746094" y1="-72.0008" x2="744.194" y2="671.255" gradientUnits="userSpaceOnUse">
<stop stop-color="#F1EDFF"/>
<stop offset="0.5" stop-color="#6633FF"/>
<stop offset="1" stop-color="#FF3300"/>
</linearGradient>
<linearGradient id="paint6_linear_8480_17" x1="0.746094" y1="-72.0008" x2="744.194" y2="671.255" gradientUnits="userSpaceOnUse">
<stop stop-color="#F1EDFF"/>
<stop offset="0.5" stop-color="#6633FF"/>
<stop offset="1" stop-color="#FF3300"/>
</linearGradient>
</defs>
</svg>
